<?xml version="1.0" standalone="no"?>
<!DOCTYPE svg PUBLIC "-//W3C//DTD SVG 20010904//EN"
 "http://www.w3.org/TR/2001/REC-SVG-20010904/DTD/svg10.dtd">
<svg version="1.0" xmlns="http://www.w3.org/2000/svg"
 width="500.000000pt" height="500.000000pt" viewBox="0 0 500.000000 500.000000"
 preserveAspectRatio="xMidYMid meet">
<metadata>
Created by potrace 1.11, written by Peter Selinger 2001-2013
</metadata>
<g transform="translate(0.000000,500.000000) scale(0.100000,-0.100000)"
fill="#000000" stroke="none">
<path d="M0 2500 l0 -2500 2500 0 2500 0 0 2500 0 2500 -2500 0 -2500 0 0
-2500z m1865 2225 c139 -30 267 -111 334 -212 90 -135 95 -335 14 -498 -51
-101 -121 -183 -423 -493 l-308 -317 399 -3 399 -2 0 -100 0 -100 -545 0 -545
0 0 102 0 102 323 326 c336 337 391 398 450 490 126 200 74 417 -117 489 -142
53 -342 26 -564 -75 -41 -19 -76 -34 -79 -34 -2 0 -2 52 -1 116 l3 116 50 20
c57 23 219 67 285 78 77 13 252 10 325 -5z m1550 0 c239 -63 391 -287 435
-645 13 -109 13 -341 0 -450 -45 -359 -195 -582 -435 -645 -69 -18 -202 -20
-277 -4 -233 49 -384 245 -445 580 -24 131 -23 457 1 589 59 327 204 521 429
576 73 17 222 17 292 -1z m-1550 -2750 c139 -30 267 -111 334 -212 90 -135 95
-335 14 -498 -51 -101 -121 -183 -423 -493 l-308 -317 399 -3 399 -2 0 -100 0
-100 -545 0 -545 0 0 102 0 102 323 326 c336 337 391 398 450 490 126 200 74
417 -117 489 -142 53 -342 26 -564 -75 -41 -19 -76 -34 -79 -34 -2 0 -2 52 -1
116 l3 116 50 20 c57 23 219 67 285 78 77 13 252 10 325 -5z m1550 0 c239 -63
391 -287 435 -645 13 -109 13 -341 0 -450 -45 -359 -195 -582 -435 -645 -69
-18 -202 -20 -277 -4 -233 49 -384 245 -445 580 -24 131 -23 457 1 589 59 327
204 521 429 576 73 17 222 17 292 -1z"/>
<path d="M3197 4550 c-131 -33 -214 -148 -258 -360 -20 -91 -23 -135 -23 -335
0 -200 3 -244 23 -335 53 -251 156 -364 331 -364 163 0 257 96 317 323 23 85
26 122 30 318 8 352 -32 547 -139 668 -62 72 -186 109 -281 85z"/>
<path d="M3197 1800 c-131 -33 -214 -148 -258 -360 -20 -91 -23 -135 -23 -335
0 -200 3 -244 23 -335 53 -251 156 -364 331 -364 163 0 257 96 317 323 23 85
26 122 30 318 8 352 -32 547 -139 668 -62 72 -186 109 -281 85z"/>
</g>
</svg>
